<?xml version="1.0" encoding="utf-8"?>
<!-- Generator: Adobe Illustrator 24.3.0, SVG Export Plug-In . SVG Version: 6.00 Build 0)  -->
<svg version="1.1" id="Layer_1" xmlns="http://www.w3.org/2000/svg" xmlns:xlink="http://www.w3.org/1999/xlink" x="0px" y="0px"
	 viewBox="0 0 1190.55 1683.78" style=" 0 0 1190.55 1683.78;" xml:space="preserve">
<style type="text/css">
	.st0{fill-rule:evenodd;clip-rule:evenodd;fill:#005DA9;}
	.st1{fill-rule:evenodd;clip-rule:evenodd;fill:#FFFFFF;}
</style>
<path class="st0" d="M401.56,708.21h229.58c8.15,0,14.81,6.66,14.81,14.81v229.58c0,8.15-6.66,14.81-14.81,14.81H401.56
	c-8.15,0-14.81-6.66-14.81-14.81V723.02C386.75,714.87,393.42,708.21,401.56,708.21z"/>
<path class="st1" d="M434.06,745.83l-10.42,69.56c2.65,0.78,4.58,3.22,4.58,6.12c0,2.99-2.05,5.49-4.83,6.19l19.77,67.54
	c0.15-0.02,0.31-0.03,0.46-0.03c2.2,0,3.99,1.79,3.99,3.99c0,0.12-0.01,0.23-0.01,0.35l49.1,28.26c1.07-2.03,3.2-3.41,5.65-3.41
	c1.43,0,2.76,0.47,3.82,1.27l18.86-32.72c-1.27-1.17-2.07-2.84-2.07-4.7c0-2.16,1.07-4.06,2.71-5.22l-15.76-35.85
	c-2.13-0.09-3.82-1.84-3.82-3.98c0-1.32,0.64-2.5,1.64-3.22l-13.79-56.83c-3.43-0.11-6.18-2.92-6.18-6.38
	c0-3.52,2.86-6.38,6.38-6.38c3.52,0,6.38,2.86,6.38,6.38c0,2.47-1.41,4.62-3.47,5.68l13.79,56.83c1.84,0.36,3.22,1.97,3.22,3.91
	c0,1.1-0.45,2.11-1.18,2.83l15.77,35.88c0.22-0.02,0.45-0.04,0.68-0.04c0.57,0,1.11,0.07,1.64,0.21l23.87-40.75
	c-1.44-1.17-2.37-2.96-2.37-4.96c0-3.52,2.86-6.38,6.38-6.38l0.05,0l11.04-50.64c-0.96-0.73-1.58-1.88-1.58-3.18
	c0-2.2,1.78-3.99,3.99-3.99c2.2,0,3.99,1.79,3.99,3.99c0,1.97-1.42,3.6-3.3,3.93L562,830.82c1.94,1.1,3.24,3.17,3.24,5.56
	c0,3.52-2.86,6.38-6.38,6.38c-0.37,0-0.74-0.03-1.09-0.09l-24.01,40.99c1.21,1.16,1.96,2.79,1.96,4.6c0,2.17-1.08,4.09-2.74,5.24
	l8.23,18.81c1.11-0.59,2.38-0.92,3.72-0.92c2.31,0,4.38,0.98,5.84,2.55l23.02-13.47c0-0.06,0-0.13,0-0.19c0-2.2,1.78-3.99,3.99-3.99
	c0.81,0,1.56,0.24,2.18,0.65l24.15-14.06c-0.17-0.57-0.26-1.17-0.26-1.8c0-3.52,2.86-6.38,6.38-6.38s6.38,2.86,6.38,6.38
	s-2.86,6.38-6.38,6.38c-1.75,0-3.33-0.7-4.49-1.85l-24.03,14c0.04,0.22,0.06,0.44,0.06,0.66c0,2.2-1.79,3.99-3.99,3.99
	c-0.97,0-1.87-0.35-2.56-0.93l-22.78,13.33c0.3,0.84,0.47,1.76,0.47,2.71c0,4.4-3.57,7.97-7.97,7.97c-4.4,0-7.97-3.57-7.97-7.97
	c0-1.86,0.64-3.57,1.7-4.93L530,894.6c-0.21,0.02-0.43,0.03-0.64,0.03c-0.51,0-1.01-0.06-1.49-0.18l-19.58,33.96
	c0.29,0.73,0.46,1.53,0.46,2.37c0,3.52-2.86,6.38-6.38,6.38c-3.42,0-6.22-2.7-6.37-6.08l-49.9-28.73c-0.68,0.53-1.52,0.84-2.45,0.84
	c-2.2,0-3.99-1.78-3.99-3.99c0-0.8,0.24-1.55,0.64-2.17l-20.33-69.41c-2.61-0.8-4.5-3.23-4.5-6.1c0-3.04,2.12-5.58,4.96-6.22
	l10.45-69.77c-1.22-0.68-2.05-1.99-2.05-3.49c0-2.2,1.79-3.98,3.99-3.98c2.2,0,3.98,1.79,3.98,3.99
	C436.8,743.82,435.65,745.31,434.06,745.83L434.06,745.83z M610.24,878.28c-1.54,0-2.79,1.25-2.79,2.79s1.25,2.79,2.79,2.79
	s2.79-1.25,2.79-2.79S611.78,878.28,610.24,878.28L610.24,878.28z M577.79,899.06c-0.66,0-1.2,0.54-1.2,1.2c0,0.66,0.54,1.2,1.2,1.2
	c0.66,0,1.2-0.54,1.2-1.2C578.98,899.6,578.45,899.06,577.79,899.06L577.79,899.06z M494.15,773.99c-1.54,0-2.79,1.25-2.79,2.79
	s1.25,2.79,2.79,2.79c1.54,0,2.79-1.25,2.79-2.79S495.7,773.99,494.15,773.99L494.15,773.99z M510.09,842c-0.66,0-1.2,0.54-1.2,1.2
	c0,0.66,0.54,1.2,1.2,1.2c0.66,0,1.2-0.54,1.2-1.2C511.29,842.54,510.75,842,510.09,842L510.09,842z M572.37,774.98
	c-0.66,0-1.2,0.54-1.2,1.2c0,0.66,0.54,1.2,1.2,1.2c0.66,0,1.2-0.54,1.2-1.2C573.57,775.51,573.03,774.98,572.37,774.98
	L572.37,774.98z M558.87,833.58c-1.54,0-2.79,1.25-2.79,2.79s1.25,2.79,2.79,2.79s2.79-1.25,2.79-2.79S560.41,833.58,558.87,833.58
	L558.87,833.58z M529.35,885.46c-1.54,0-2.79,1.25-2.79,2.79c0,1.54,1.25,2.79,2.79,2.79s2.79-1.25,2.79-2.79
	C532.14,886.71,530.89,885.46,529.35,885.46L529.35,885.46z M502.36,927.99c-1.54,0-2.79,1.25-2.79,2.79s1.25,2.79,2.79,2.79
	s2.79-1.25,2.79-2.79S503.9,927.99,502.36,927.99L502.36,927.99z M443.64,898.01c-0.66,0-1.2,0.54-1.2,1.2c0,0.66,0.54,1.2,1.2,1.2
	c0.66,0,1.2-0.54,1.2-1.2C444.84,898.54,444.3,898.01,443.64,898.01L443.64,898.01z M544.94,914.57c-2.64,0-4.78,2.14-4.78,4.78
	c0,2.64,2.14,4.78,4.78,4.78c2.64,0,4.78-2.14,4.78-4.78C549.73,916.71,547.59,914.57,544.94,914.57L544.94,914.57z M432.82,740.85
	c-0.66,0-1.2,0.53-1.2,1.19c0,0.66,0.53,1.2,1.19,1.2c0.66,0,1.2-0.53,1.2-1.19C434.02,741.39,433.48,740.85,432.82,740.85
	L432.82,740.85z M421.85,818.73c-1.54,0-2.79,1.25-2.79,2.79c0,1.54,1.25,2.79,2.79,2.79s2.79-1.25,2.79-2.79
	C424.64,819.98,423.39,818.73,421.85,818.73z"/>
<path class="st0" d="M829.33,861.08v11.86h-4.61v-21.91h4.61v4c0.74-1.35,1.76-2.4,3.07-3.17c1.31-0.77,2.71-1.15,4.22-1.15
	c2.47,0,4.47,0.76,5.99,2.27c1.52,1.51,2.29,3.69,2.29,6.55v13.43h-4.61v-12.03c0-4.04-1.68-6.05-5.03-6.05
	c-1.59,0-2.98,0.53-4.16,1.59C829.92,857.51,829.33,859.05,829.33,861.08z"/>
<path class="st0" d="M817.17,870c-2.2,2.18-4.94,3.27-8.24,3.27c-3.3,0-6.04-1.09-8.24-3.27c-2.2-2.18-3.3-4.85-3.3-8.01
	c0-3.16,1.1-5.83,3.3-8.01c2.2-2.18,4.94-3.27,8.24-3.27c3.3,0,6.04,1.09,8.24,3.27c2.2,2.18,3.3,4.85,3.3,8.01
	C820.46,865.15,819.36,867.82,817.17,870L817.17,870z M803.97,867.16c1.3,1.33,2.96,2,4.96,2c2,0,3.66-0.67,4.96-2
	c1.3-1.33,1.96-3.05,1.96-5.17c0-2.11-0.65-3.84-1.96-5.17c-1.3-1.33-2.96-2-4.96-2c-2,0-3.66,0.67-4.96,2
	c-1.3,1.33-1.96,3.05-1.96,5.17C802.01,864.1,802.66,865.83,803.97,867.16z"/>
<path class="st0" d="M777.96,854.74v11.12c0,1.04,0.28,1.87,0.82,2.49c0.55,0.62,1.32,0.93,2.31,0.93c0.99,0,1.94-0.48,2.84-1.44
	l1.89,3.25c-1.62,1.46-3.41,2.18-5.38,2.18c-1.96,0-3.64-0.68-5.03-2.04c-1.39-1.36-2.08-3.19-2.08-5.5v-11h-2.76v-3.71h2.76v-6.88
	h4.61v6.88h5.77v3.71H777.96z"/>
<path class="st0" d="M761.97,862.9v-11.86h4.61v21.91h-4.61v-4c-0.74,1.35-1.76,2.4-3.07,3.17c-1.3,0.77-2.71,1.15-4.22,1.15
	c-2.47,0-4.47-0.75-5.99-2.27c-1.52-1.51-2.29-3.69-2.29-6.55v-13.43h4.61v12.03c0,4.04,1.67,6.06,5.02,6.06
	c1.59,0,2.98-0.53,4.16-1.59C761.38,866.47,761.97,864.93,761.97,862.9z"/>
<rect x="736.33" y="842.38" class="st0" width="4.61" height="30.56"/>
<path class="st0" d="M728.78,870c-2.2,2.18-4.94,3.27-8.24,3.27c-3.29,0-6.04-1.09-8.24-3.27c-2.2-2.18-3.29-4.85-3.29-8.01
	c0-3.16,1.1-5.83,3.29-8.01c2.2-2.18,4.94-3.27,8.24-3.27c3.3,0,6.04,1.09,8.24,3.27c2.2,2.18,3.3,4.85,3.3,8.01
	C732.07,865.15,730.97,867.82,728.78,870L728.78,870z M715.57,867.16c1.3,1.33,2.96,2,4.96,2c2,0,3.66-0.67,4.96-2
	c1.3-1.33,1.96-3.05,1.96-5.17c0-2.11-0.65-3.84-1.96-5.17c-1.3-1.33-2.96-2-4.96-2c-2,0-3.66,0.67-4.96,2
	c-1.3,1.33-1.96,3.05-1.96,5.17C713.62,864.1,714.27,865.83,715.57,867.16z"/>
<path class="st0" d="M694.84,847.94c-1.41,0-2.57,0.29-3.48,0.86c-0.91,0.58-1.36,1.45-1.36,2.62c0,1.17,0.45,2.06,1.36,2.68
	c0.91,0.62,2.84,1.28,5.79,2c2.95,0.71,5.18,1.72,6.67,3.01c1.5,1.29,2.24,3.19,2.24,5.7c0,2.51-0.95,4.55-2.84,6.12
	c-1.9,1.57-4.38,2.35-7.46,2.35c-4.5,0-8.5-1.55-11.99-4.65l3.05-3.67c2.91,2.53,5.93,3.79,9.06,3.79c1.57,0,2.81-0.34,3.73-1.01
	c0.92-0.67,1.38-1.57,1.38-2.68c0-1.11-0.43-1.98-1.3-2.6c-0.86-0.62-2.35-1.18-4.47-1.69c-2.11-0.51-3.72-0.97-4.82-1.4
	c-1.1-0.43-2.07-0.98-2.92-1.67c-1.7-1.29-2.55-3.27-2.55-5.93c0-2.66,0.97-4.72,2.9-6.16c1.94-1.44,4.33-2.16,7.19-2.16
	c1.84,0,3.67,0.3,5.48,0.91c1.81,0.6,3.38,1.46,4.7,2.55l-2.6,3.67c-0.85-0.77-2-1.4-3.46-1.9
	C697.69,848.19,696.25,847.94,694.84,847.94z"/>
<polygon class="st0" points="928.01,832.77 923.4,832.77 923.4,802.2 928.01,802.2 928.01,820.16 936.91,810.85 942.84,810.85 
	934.52,819.54 943.46,832.77 937.85,832.77 931.35,823.17 928.01,826.55 "/>
<path class="st0" d="M902.37,820.9v11.86h-4.61v-21.91h4.61v4c0.74-1.35,1.76-2.4,3.07-3.17c1.3-0.77,2.71-1.15,4.22-1.15
	c2.47,0,4.47,0.76,5.99,2.27c1.52,1.51,2.29,3.69,2.29,6.55v13.43h-4.61v-12.03c0-4.04-1.68-6.05-5.03-6.05
	c-1.59,0-2.98,0.53-4.16,1.59C902.96,817.33,902.37,818.87,902.37,820.9z"/>
<polygon class="st0" points="865.28,832.77 865.28,803.97 870.14,803.97 870.14,828.15 883.28,828.15 883.28,832.77 "/>
<path class="st0" d="M856.73,832.77h-4.2v-2.92c-1.81,2.17-4.24,3.25-7.29,3.25c-2.28,0-4.17-0.65-5.66-1.94
	c-1.5-1.29-2.25-3.01-2.25-5.17c0-2.16,0.8-3.77,2.39-4.84c1.59-1.07,3.75-1.61,6.47-1.61h5.97v-0.82c0-2.91-1.62-4.37-4.86-4.37
	c-2.03,0-4.15,0.74-6.34,2.22l-2.06-2.88c2.66-2.11,5.68-3.17,9.06-3.17c2.58,0,4.69,0.65,6.32,1.96c1.63,1.3,2.45,3.36,2.45,6.16
	V832.77L856.73,832.77z M852.12,824.61v-1.85h-5.19c-3.32,0-4.98,1.04-4.98,3.13c0,1.07,0.41,1.89,1.24,2.45
	c0.82,0.56,1.97,0.84,3.44,0.84c1.47,0,2.75-0.41,3.85-1.24C851.57,827.12,852.12,826.01,852.12,824.61z"/>
<path class="st0" d="M834.72,826.22c0,2.09-0.75,3.76-2.27,5c-1.51,1.25-3.45,1.87-5.81,1.87c-1.59,0-3.25-0.29-4.96-0.87
	c-1.72-0.58-3.23-1.39-4.55-2.43l2.22-3.58c2.55,1.92,5.03,2.88,7.41,2.88c1.04,0,1.87-0.24,2.47-0.72c0.6-0.48,0.91-1.09,0.91-1.83
	c0-1.1-1.46-2.09-4.37-2.97c-0.22-0.08-0.38-0.14-0.49-0.16c-4.56-1.24-6.84-3.3-6.84-6.18c0-2.03,0.79-3.66,2.37-4.88
	c1.58-1.22,3.63-1.83,6.16-1.83s4.92,0.74,7.17,2.22l-1.73,3.42c-1.78-1.18-3.72-1.77-5.81-1.77c-1.1,0-1.99,0.2-2.68,0.6
	c-0.69,0.4-1.03,1-1.03,1.79c0,0.71,0.36,1.24,1.07,1.57c0.49,0.25,1.19,0.48,2.08,0.7c0.89,0.22,1.68,0.44,2.37,0.66
	c0.69,0.22,1.35,0.47,2,0.74c0.65,0.27,1.34,0.66,2.08,1.15C833.98,822.59,834.72,824.13,834.72,826.22z"/>
<path class="st0" d="M815.22,815.18c-2.28,0-4,0.74-5.15,2.22c-1.15,1.48-1.73,3.47-1.73,5.97v9.39h-4.61v-21.91h4.61v4.41
	c0.74-1.37,1.75-2.5,3.03-3.38c1.28-0.88,2.63-1.33,4.06-1.36l0.04,4.65C815.39,815.18,815.3,815.18,815.22,815.18z"/>
<path class="st0" d="M799.64,823.83h-17.18c0.11,1.59,0.84,2.88,2.18,3.85c1.35,0.97,2.88,1.46,4.61,1.46c2.75,0,4.83-0.86,6.26-2.6
	l2.64,2.88c-2.36,2.44-5.44,3.67-9.23,3.67c-3.08,0-5.69-1.02-7.85-3.07c-2.16-2.05-3.23-4.79-3.23-8.24c0-3.45,1.1-6.19,3.3-8.22
	c2.2-2.03,4.78-3.05,7.76-3.05c2.98,0,5.51,0.9,7.6,2.7c2.09,1.8,3.13,4.28,3.13,7.43V823.83L799.64,823.83z M782.46,820.2h12.56
	c0-1.84-0.58-3.25-1.73-4.24c-1.15-0.99-2.57-1.48-4.26-1.48c-1.69,0-3.21,0.51-4.55,1.54C783.13,817.05,782.46,818.45,782.46,820.2
	z"/>
<polygon class="st0" points="767.13,832.77 761.69,832.77 750.12,803.97 755.56,803.97 764.41,825.48 773.27,803.97 778.71,803.97 
	"/>
<path class="st0" d="M739.41,810.02c-0.58-0.58-0.86-1.26-0.86-2.06c0-0.8,0.29-1.48,0.86-2.06c0.58-0.58,1.26-0.86,2.06-0.86
	c0.8,0,1.48,0.29,2.06,0.86c0.58,0.58,0.86,1.26,0.86,2.06c0,0.8-0.29,1.48-0.86,2.06c-0.58,0.58-1.26,0.87-2.06,0.87
	C740.68,810.89,739.99,810.6,739.41,810.02z"/>
<rect x="739.13" y="812.84" class="st0" width="4.61" height="19.92"/>
<path class="st0" d="M718.1,820.9v11.86h-4.61v-21.91h4.61v4c0.74-1.35,1.76-2.4,3.07-3.17c1.3-0.77,2.71-1.15,4.22-1.15
	c2.47,0,4.47,0.76,5.99,2.27c1.52,1.51,2.29,3.69,2.29,6.55v13.43h-4.61v-12.03c0-4.04-1.67-6.05-5.02-6.05
	c-1.59,0-2.98,0.53-4.16,1.59C718.69,817.33,718.1,818.87,718.1,820.9z"/>
<path class="st0" d="M690.65,826.18c1.32,1.54,3.1,2.31,5.35,2.31c2.25,0,4.04-0.77,5.36-2.31c1.32-1.54,1.98-3.62,1.98-6.26v-15.94
	h4.86v16.15c0,4.15-1.14,7.34-3.42,9.58c-2.28,2.24-5.2,3.36-8.77,3.36c-3.57,0-6.49-1.12-8.77-3.36c-2.28-2.24-3.42-5.43-3.42-9.58
	v-16.15h4.86v15.94C688.67,822.55,689.33,824.64,690.65,826.18z"/>
<path class="st0" d="M888.02,810.02c-0.58-0.58-0.86-1.26-0.86-2.06c0-0.8,0.29-1.48,0.86-2.06c0.58-0.58,1.26-0.86,2.06-0.86
	c0.8,0,1.48,0.29,2.06,0.86c0.58,0.58,0.87,1.26,0.87,2.06c0,0.8-0.29,1.48-0.87,2.06c-0.58,0.58-1.26,0.87-2.06,0.87
	C889.28,810.89,888.59,810.6,888.02,810.02z"/>
<rect x="887.73" y="812.84" class="st0" width="4.61" height="19.92"/>
<path class="st0" d="M789.93,850.2c-0.58-0.58-0.86-1.26-0.86-2.06c0-0.8,0.29-1.48,0.86-2.06c0.58-0.58,1.26-0.86,2.06-0.86
	c0.8,0,1.48,0.29,2.06,0.86c0.58,0.58,0.86,1.26,0.86,2.06c0,0.8-0.29,1.48-0.86,2.06c-0.58,0.58-1.26,0.87-2.06,0.87
	C791.19,851.07,790.51,850.78,789.93,850.2z"/>
<rect x="789.64" y="853.02" class="st0" width="4.61" height="19.92"/>
<path class="st0" d="M865.97,866.4c0,2.09-0.76,3.76-2.27,5c-1.51,1.25-3.45,1.87-5.81,1.87c-1.59,0-3.25-0.29-4.96-0.87
	c-1.72-0.58-3.23-1.39-4.55-2.43l2.22-3.58c2.55,1.92,5.03,2.88,7.41,2.88c1.04,0,1.87-0.24,2.47-0.72c0.6-0.48,0.91-1.09,0.91-1.83
	c0-1.1-1.46-2.09-4.37-2.97c-0.22-0.08-0.38-0.14-0.49-0.16c-4.56-1.24-6.84-3.3-6.84-6.18c0-2.03,0.79-3.66,2.37-4.88
	c1.58-1.22,3.63-1.83,6.16-1.83s4.92,0.74,7.17,2.22l-1.73,3.42c-1.78-1.18-3.72-1.77-5.81-1.77c-1.1,0-1.99,0.2-2.68,0.6
	c-0.69,0.4-1.03,1-1.03,1.79c0,0.71,0.36,1.24,1.07,1.57c0.49,0.25,1.19,0.48,2.08,0.7c0.89,0.22,1.68,0.44,2.37,0.66
	c0.69,0.22,1.35,0.47,2,0.74c0.65,0.27,1.34,0.66,2.08,1.15C865.23,862.77,865.97,864.31,865.97,866.4z"/>
</svg>
